<?xml version="1.0" encoding="utf-8"?>
<!-- Generator: Adobe Illustrator 24.0.1, SVG Export Plug-In . SVG Version: 6.00 Build 0)  -->
<svg version="1.1" id="Camada_1" xmlns="http://www.w3.org/2000/svg" xmlns:xlink="http://www.w3.org/1999/xlink" x="0px" y="0px"
	 viewBox="0 0 512 512" style="enable-background:new 0 0 512 512;" xml:space="preserve">
<style type="text/css">
	.st0{fill-rule:evenodd;clip-rule:evenodd;fill:#EC1F8D;}
	.st1{fill-rule:evenodd;clip-rule:evenodd;fill:#525254;}
	.st2{fill-rule:evenodd;clip-rule:evenodd;fill:#FFFFFF;}
</style>
<g>
	<path class="st0" d="M135.43,183.27c0,0-0.27,130.38,0,194.32c0.29,65.79,121.39,117.89,121.39,117.89s121.15-58.74,120.9-117.89
		c-0.24-54.6,0-194.32,0-194.32H135.43z"/>
	<path class="st1" d="M240.94,27.84c0.8,0,2.66-0.63,5.68-1.88c2.99-1.25,5.4-1.88,7.23-1.88c2.08,0,4.78,0.61,8.1,1.8
		c3.34,1.17,5.37,1.78,6.14,1.78c0.8,0,1.54-0.42,2.25-1.25c0.73-0.82,1.09-1.67,1.09-2.48c0-2.02-1.5-4.02-4.49-5.97
		c-2.99-1.96-6.38-2.94-10.15-2.94c-5.22,0-9.61,0.87-13.19,2.58c-3.58,1.73-5.51,3.78-5.75,6.16
		C238.72,26.47,239.77,27.84,240.94,27.84 M453.94,325.21c1.88,5.61,2.81,12.62,2.81,21.03c0,8.79-2.27,16.4-6.83,22.81
		c-3.61,5.11-8.03,9.09-13.28,11.92c-5.23,2.83-10.76,4.25-16.64,4.25c-7.61,0-14.17-1.34-19.71-4.01
		c-7.23-3.5-12.77-8.02-16.65-13.56c-3.12-4.42-4.68-8.49-4.68-12.24c0-3.82,0.61-8.37,1.82-13.7c1.22-5.32,1.83-8.92,1.83-10.78
		c0-4.55-1.52-8.15-4.39-10.95c0,22.59,0.04,43.39,0.1,58.08c0.25,59.94-121.98,119.47-121.98,119.47s-122.21-52.81-122.49-119.47
		c-0.06-16.16-0.09-36.5-0.11-57.93c-2.78,2.77-4.24,6.33-4.24,10.8c0,1.86,0.6,5.46,1.83,10.78c1.21,5.33,1.82,9.89,1.82,13.7
		c0,3.74-1.57,7.82-4.68,12.24c-3.87,5.54-9.41,10.07-16.64,13.56c-5.54,2.67-12.11,4.01-19.72,4.01c-5.85,0-11.41-1.42-16.64-4.25
		c-5.23-2.83-9.66-6.81-13.28-11.92c-4.54-6.41-6.81-14.02-6.81-22.81c0-8.41,0.94-15.42,2.79-21.03
		c2.06-5.99,5.53-11.5,10.38-16.55c-0.87-0.06-1.77-0.09-2.71-0.09H65.2c-1.31,0-2.82-0.62-4.53-1.88c-1.72-1.24-2.59-2.3-2.59-3.17
		c0-1.07,0.54-1.59,1.59-1.59c0.13,0,0.83,0.33,2.11,0.99c1.28,0.66,2.86,0.97,4.72,0.97c3.05,0,6.07-0.55,9.08-1.67
		c2.16-0.94,4.32-1.89,6.44-2.8c1.74-0.64,3.81-1.5,6.17-2.62c0.5-1.13,1.03-2.28,1.6-3.46c0.8-1.63,2.46-2.44,4.97-2.44
		c0.24,0,0.88,0.19,1.9,0.56c1.04,0.38,1.83,0.56,2.39,0.56h0.73c1.13,0,1.88-0.27,2.26-0.83c0.69-0.99,1.44-1.72,2.24-2.15
		c-0.38-0.64-1.06-1.37-2.05-2.26c-0.75-0.62-1.13-1.24-1.13-1.87c0-0.73,0.56-1.41,1.69-2c1.11-0.6,2.42-0.9,3.92-0.9
		c0.43,0,1.28,0.13,2.52,0.37c1.25,0.26,2.26,0.38,2.99,0.38c1.88,0,4.65-1.56,8.32-4.67c-0.13-0.07-1.24-0.69-3.36-1.87
		c-1.19-0.7-1.77-1.5-1.77-2.43c0-1.44,1.05-2.9,3.17-4.4c3.67-2.62,5.89-4.27,6.63-4.95c2.38-2.31,4.53-6.36,6.45-12.2
		c0.94-2.85,1.63-5.54,2.12-8.15c0.01-7.33,0.01-14.3,0.03-20.75c-0.53-4.41-1.34-8.59-2.43-12.56c-1.86-6.6-3.58-10.18-5.13-10.75
		c-0.13,0.06-0.19,0.19-0.19,0.37v0.75l1.03,3.37c0.81,2.63,1.47,5.4,1.95,8.32c0.7,4.24,1.05,8.72,1.05,13.46
		c0,11.15-3.08,21.65-9.26,31.5c-2.86,4.55-7.62,8.61-14.26,12.2c-6.63,3.58-12.63,5.38-17.99,5.38c-3.24,0-7.38-1.16-12.43-3.46
		c-5.23-2.37-9.22-5.06-11.91-8.09c-2.72-3.02-4.85-6.55-6.42-10.61c-1.31-3.48-1.95-6.72-1.95-9.72v-4.02
		c0-8.1,2.71-15.19,8.14-21.26c5.4-6.08,11.99-9.11,19.72-9.11c6.23,0,11.87,2.35,16.91,7.05c5.05,4.71,7.57,10.24,7.57,16.59
		c0,4.18-1.32,7.89-3.98,11.12c-2.65,3.26-5.72,4.87-9.2,4.87c-3.44,0-6.14-0.82-8.14-2.43c-2-1.63-2.99-3.74-2.99-6.37
		c0-2,0.69-3.73,2.07-5.18c1.37-1.47,2.89-2.19,4.58-2.19c1.61,0,3.08,0.65,4.39,1.96c1.3,1.3,1.95,2.77,1.95,4.39
		c0,0.25-0.08,0.65-0.28,1.21c-0.19,0.56-0.28,1.01-0.28,1.31c0,0.69,0.32,1.03,0.95,1.03h0.18c1.62-0.18,3.04-1.35,4.21-3.5
		c1.19-2.16,1.79-4.19,1.79-6.12c0-2.55-0.73-5.27-2.16-8.13c-1.56-3.06-3.34-5.09-5.33-6.08v0.28c0,0.99-0.44,1.87-1.31,2.6
		c-0.87,0.76-1.81,1.13-2.81,1.13c-1.49,0-3.22-1.33-5.19-3.96c-1.96-2.65-3.84-3.98-5.65-3.98c-0.43,0-0.8,0.25-1.12,0.75
		c3.05,2.17,4.58,4.23,4.58,6.17c0,1-0.36,1.84-1.08,2.52c-0.7,0.67-1.62,1.03-2.75,1.03c-0.82,0-2.3-0.29-4.45-0.84
		c-2.13-0.56-3.75-0.85-4.81-0.85h-0.37c-1.88,0-4.01,1.66-6.45,4.96c-2.99,4.11-4.48,9.03-4.48,14.76c0,4.74,2.14,9.98,6.44,15.71
		c2.12,2.8,5.54,5.48,10.28,8.04c4.37,2.36,7.6,3.55,9.72,3.55c0.38,0,1.06-0.13,2.06-0.37c0-0.06,0.03-0.13,0.09-0.19v-0.28
		c0-0.24-0.41-0.88-1.25-1.91c-0.85-1.03-1.27-1.88-1.27-2.58c0-0.8,0.68-1.53,2.02-2.19c1.34-0.65,2.81-0.98,4.43-0.98h0.1
		c0.94,0,2.43,0.38,4.49,1.12c2.04,0.76,3.39,1.13,4.02,1.13c1.69,0,3.42-0.36,5.19-1.07c1.78-0.73,2.67-1.42,2.67-2.11
		c0-0.74-1.22-1.51-3.65-2.3c-2.44-0.78-3.65-1.84-3.65-3.21c0-0.88,0.85-1.81,2.53-2.85c1.69-1.03,4.02-1.86,7.02-2.48
		c1.18-0.19,2.7-0.63,4.56-1.3c1.39-0.87,2.63-2.05,3.74-3.53c1.12-1.45,1.69-2.48,1.69-3.03c0-0.62-0.35-1.23-1.04-1.83
		c-0.68-0.59-1.02-1.13-1.02-1.63c0-0.69,0.53-1.83,1.59-3.46c1.31-2,2.25-3.84,2.8-5.51c1.06-2.8,1.59-6.08,1.59-9.83
		c0-2.53-0.4-5.75-1.21-9.61c-0.93-4.23-2-7.39-3.18-9.45c-1.25-2.24-2.49-4.46-3.74-6.62c-0.99-1.75-1.97-2.85-2.9-3.28
		c-2.67-1.31-4.02-2.46-4.02-3.46c0-1.43,1.91-2.15,5.69-2.15c-0.05,0,0.23-0.04,0.85-0.08c0.63-0.07,1.27-0.1,1.97-0.1
		c1.8,0,3.32,0.62,4.57,1.86c0.75,0.81,2.46,3.31,5.14,7.48c2.16,3.3,3.9,6.85,5.43,10.52c0.03-14.79,0.04-24.08,0.04-24.08h3.79
		c-1.04-0.45-1.69-0.99-1.69-1.64c0-0.58,0.16-1.65,0.42-3.19c0.29-1.56,0.42-2.74,0.42-3.62c0-1.36-0.36-3-1.06-4.96
		c-1.11-3.03-1.65-4.6-1.65-4.74c-1.11-6.11,6.74-9.97,15.49-4.42c1.41,0.87,3.24,1.64,5.44,2.31c2.22,0.68,4.39,1.36,6.56,2
		c2.19,0.64,4.36,1.25,6.56,1.82c1.34,0.45,2.02,0.92,2.02,1.41c0,1.01-1.21,1.51-3.66,1.51h-0.95c-2.36,0-7.6-0.93-15.73-2.8
		c-0.63,0-1.03,0.18-1.19,0.54c0.8,1.65,2.44,3.24,4.98,4.75c4.56,2.65,9.81,4.81,15.73,6.48c5.59,1.5,10.79,2.24,15.61,2.24
		c8.51,0,15.21-0.67,20.11-2.04c7.02-1.94,12.8-5.21,17.36-9.81c4.2-4.16,6.31-8.32,6.45-12.49c-1.06-0.51-2.24-1.29-3.56-2.4
		c-2.47-2.09-3.71-3.72-3.71-4.92c0-0.23,0.13-0.58,0.39-1.06c0.53,0.36,1.57,0.88,3.14,1.6l2.15,0.71l0.45-0.83
		c-0.21-0.74-0.34-1.37-0.61-2.19c-1.24-3.6-1.85-5.98-1.85-7.12c0-1.29,0.84-2.31,2.53-3.07c1.69-0.76,2.54-1.5,2.54-2.21
		c0-1.52-1.45-2.87-4.37-4.09c-3.47-1.3-6.93-2.56-10.41-3.78c-4.89-1.96-7.32-4.03-7.32-6.25c0-3.1,2.02-5.3,6.02-6.59
		c-0.38-2.01-2.39-3.02-6.02-3.02c-2.29,0-5.02,0.87-8.22,2.6c-3.19,1.71-5.58,2.58-7.16,2.58c-3.31,0-5.24-1.21-5.78-3.66
		c-0.17-1.22-0.34-2.45-0.54-3.66c-0.2-1.23-0.97-1.84-2.31-1.84c-1.73,0-3.85,1.33-6.39,3.99c-2.91,3.02-5.4,6.94-7.44,11.75
		c-1.33,3.17-2,6.91-2,11.21c0,6.48,1.72,11.75,5.2,15.86c3,3.52,6.39,5.29,10.17,5.29c6.71,0,10.06-1.16,10.06-3.45
		c0-0.22-0.96-1.12-2.9-2.71c-1.93-1.57-2.91-3.36-2.91-5.36c0-1.74,0.66-3.36,1.96-4.86c1.31-1.51,2.74-2.27,4.31-2.27
		c3.24,0,5.94,0.94,8.11,2.81c2.16,1.85,3.26,4.19,3.26,7c0,4.03-1.68,7.37-4.98,10.02c-3.31,2.67-7.56,4-12.77,4
		c-2.6,0-5.51-0.57-8.74-1.73c-3.24-1.15-5.93-2.59-8.05-4.3c-2.77-2.24-4.99-5.25-6.69-9.06c-1.7-3.82-2.54-7.76-2.54-11.87
		c0-8.62,3.72-17,11.11-25.13c-0.62-0.57-1.38-0.87-2.24-0.87c-0.63,0-1.45,0.25-2.42,0.71c-0.99,0.47-1.59,0.7-1.83,0.7
		c-3.55,0-5.75-1.83-6.63-5.5c-0.78-3.16,7.7-6.36,14.32-6.36c1.8,0,4.83-0.22,9.04-0.64c4.22-0.44,7.51-0.67,9.88-0.67
		c6.07,0,11.2,0.81,15.37,2.37c21.45,8.13,32.16,21.47,32.16,40.02c0,1.8-0.25,3.48-0.43,5.22c0.84,0.43,1.64,0.91,2.41,1.54
		c2.53,2.07,4.12,3.11,4.77,3.11c2.08,0,3.13-1.73,3.13-5.17c0-11.05-6.84-25.9-20.51-44.53l-0.39-1.26
		c0.13-0.83,0.71-1.24,1.76-1.24c1.58,0,3.16,1.43,4.79,4.28c1.63,2.85,3.14,4.39,4.59,4.62c0.26-0.24,0.39-0.41,0.39-0.53
		c0-4.28-2.02-8.09-6.06-11.41c-1.56-1.3-5.01-3.67-10.35-7.11c-3.13-2.02-4.68-3.68-4.68-4.99c0-2.39,2.28-4.64,6.85-6.78
		c-0.8-2.61-2.32-4.34-4.6-5.17c-2.29-0.82-4.44-1.6-6.46-2.31c-2.02-0.71-3.02-2.07-3.02-4.1c0-2.26,1.04-4.34,3.11-6.24
		c2.09-1.91,4.37-2.84,6.85-2.84c6.25,0,13.34,7.94,21.3,23.87c1.56,3.09,2.8,8.04,3.71,14.87c0.9,6.83,2.22,11.73,3.91,14.7
		c0.77-2.03,1.16-3.82,1.16-5.36v-0.89c-0.13-0.59-0.18-1.07-0.18-1.42c0-0.12,0.04-0.4,0.18-0.89v-1.07
		c0-12.83-1.72-25.54-5.16-38.12c-3.45-12.59-5.19-18.82-5.19-18.71c0-0.48,0.12-0.95,0.4-1.42c0.25-0.47,1.36-1.19,3.3-2.15
		c0.53-5.22,2.86-7.84,7.04-7.84c3.91,0,7.29,1.78,10.16,5.34c0.12-0.12,0.42-0.32,0.89-0.61c0.44-0.3,0.82-0.57,1.05-0.8
		c1.96,0.72,2.95,2.14,2.95,4.28c0,0.81-0.86,3.56-2.55,8.2c-2.22,5.93-3.92,11.1-5.07,15.49c-0.53,2.02-1.26,9.03-2.16,21.03
		c-1.18,15.44-1.76,23.21-1.76,23.33c0,2.49,0.25,4.75,0.79,6.77c1.54-3.22,3.13-8.61,4.69-16.21c1.55-8.44,3.24-14.84,5.07-19.24
		c3.12-7.72,7.24-14.13,12.31-19.24c4.17-4.28,7.62-6.41,10.38-6.41c2.45,0,4.83,1.15,7.13,3.47c2.25,2.31,3.42,4.67,3.42,7.05
		c0,1.54-0.58,2.87-1.76,4c-1.18,1.12-2.5,1.69-3.92,1.69c-1.18,0-2.33-0.59-3.52-1.78c-1.02,0.47-1.56,1.42-1.56,2.85v0.89
		c0,1.77-3.31,4.93-9.96,9.44l1.75-0.18c1.95-1.07,3.7-1.61,5.27-1.61c4.95,0,7.45,1.79,7.45,5.34c0,1.43-2.7,3.86-8.04,7.3
		c-7.43,4.76-13.4,9.52-17.96,14.26l-1.38,2.32l0.59,0.9c1.95-0.37,4.73-1.98,8.4-4.9c3.63-2.91,6.38-4.37,8.19-4.37
		c0.79,0,1.19,0.29,1.19,0.88c0-0.13-2.93,2.9-8.79,9.09c-10.18,10.69-17.12,24.35-20.9,40.98l0.57,1.95
		c2.36-0.71,5.01-2.68,8.01-5.88c2.21-2.31,4.33-3.57,6.35-3.93c-0.04-0.82-0.2-1.56-0.2-2.37c0-18.55,10.74-31.89,32.19-40.02
		c4.19-1.56,9.31-2.37,15.39-2.37c2.37,0,5.66,0.22,9.87,0.67c4.22,0.42,7.25,0.64,9.07,0.64c6.61,0,15.09,3.2,14.31,6.36
		c-0.87,3.67-3.08,5.5-6.65,5.5c-0.21,0-0.82-0.23-1.83-0.7c-0.97-0.47-1.79-0.71-2.42-0.71c-0.87,0-1.61,0.3-2.25,0.87
		c7.41,8.13,11.13,16.51,11.13,25.13c0,4.11-0.85,8.05-2.55,11.87c-1.69,3.81-3.92,6.82-6.69,9.06c-2.13,1.72-4.8,3.16-8.05,4.3
		c-3.22,1.16-6.14,1.73-8.74,1.73c-5.21,0-9.48-1.33-12.78-4c-3.33-2.65-4.98-5.99-4.98-10.02c0-2.8,1.08-5.14,3.26-7
		c2.16-1.88,4.87-2.81,8.09-2.81c1.58,0,3.03,0.75,4.33,2.27c1.28,1.5,1.96,3.12,1.96,4.86c0,2-0.98,3.79-2.9,5.36
		c-1.95,1.6-2.9,2.5-2.9,2.71c0,2.3,3.34,3.45,10.05,3.45c3.78,0,7.18-1.76,10.18-5.29c3.47-4.11,5.21-9.38,5.21-15.86
		c0-4.3-0.67-8.04-1.99-11.21c-2.06-4.81-4.55-8.74-7.47-11.75c-2.53-2.65-4.66-3.99-6.38-3.99c-1.35,0-2.12,0.61-2.32,1.84
		c-0.2,1.21-0.38,2.44-0.53,3.66c-0.56,2.45-2.47,3.66-5.81,3.66c-1.57,0-3.95-0.86-7.15-2.58c-3.2-1.73-5.93-2.6-8.21-2.6
		c-3.64,0-5.65,1.01-6.04,3.02c4.02,1.29,6.04,3.49,6.04,6.59c0,2.22-2.44,4.3-7.35,6.25c-3.46,1.21-6.94,2.47-10.41,3.78
		c-2.91,1.22-4.36,2.57-4.36,4.09c0,0.71,0.84,1.45,2.54,2.21c1.69,0.76,2.55,1.78,2.55,3.07c0,1.1-0.58,3.34-1.69,6.65
		c0.08-0.01,0.21-0.07,0.29-0.07c0.78,0,1.18,0.24,1.18,0.71c0,0.12-0.26,0.66-0.79,1.59c-0.48,1.15-1.26,2.22-2.21,3.21
		c-0.29,1.38-0.44,2.61-0.44,3.66c0,4.32,2.17,8.61,6.53,12.94c4.55,4.6,10.34,7.86,17.37,9.81c4.9,1.37,11.6,2.04,20.12,2.04
		c4.81,0,10.02-0.75,15.62-2.24c5.93-1.67,11.17-3.83,15.74-6.48c2.52-1.51,4.19-3.1,4.98-4.75c-0.17-0.36-0.57-0.54-1.19-0.54
		c-8.12,1.87-13.37,2.8-15.74,2.8h-0.95c-2.43,0-3.66-0.51-3.66-1.51c0-0.49,0.68-0.96,2.02-1.41c2.2-0.57,4.39-1.18,6.58-1.82
		c2.15-0.64,4.35-1.32,6.54-2c2.2-0.67,4.03-1.44,5.45-2.31c8.76-5.54,16.6-1.69,15.49,4.42c0,0.14-0.56,1.71-1.64,4.74
		c-0.72,1.96-1.07,3.6-1.07,4.96c0,0.88,0.12,2.06,0.4,3.62c0.27,1.54,0.43,2.61,0.43,3.19c0,0.65-0.65,1.19-1.69,1.64h4.97
		c0,0-0.01,9.34-0.03,24.11c1.53-3.68,3.3-7.25,5.46-10.55c2.67-4.17,4.38-6.67,5.13-7.48c1.25-1.24,2.78-1.86,4.58-1.86
		c0.69,0,1.34,0.03,1.96,0.1c0.62,0.04,0.9,0.08,0.85,0.08c3.78,0,5.68,0.72,5.68,2.15c0,1-1.34,2.14-4.01,3.46
		c-0.93,0.43-1.91,1.53-2.9,3.28c-1.26,2.17-2.48,4.38-3.73,6.62c-1.18,2.06-2.25,5.22-3.18,9.45c-0.81,3.86-1.23,7.08-1.23,9.61
		c0,3.75,0.55,7.03,1.6,9.83c0.56,1.68,1.49,3.51,2.81,5.51c1.05,1.63,1.58,2.77,1.58,3.46c0,0.5-0.33,1.04-1.02,1.63
		c-0.68,0.6-1.04,1.21-1.04,1.83c0,0.55,0.57,1.57,1.69,3.03c1.14,1.48,2.38,2.65,3.76,3.53c1.85,0.68,3.38,1.11,4.57,1.3
		c2.99,0.61,5.32,1.44,7.01,2.48c1.68,1.04,2.53,1.97,2.53,2.85c0,1.37-1.21,2.43-3.65,3.21c-2.44,0.79-3.65,1.56-3.65,2.3
		c0,0.68,0.9,1.38,2.66,2.11c1.78,0.72,3.5,1.07,5.19,1.07c0.61,0,1.95-0.36,4.02-1.13c2.05-0.73,3.54-1.12,4.48-1.12h0.09
		c1.62,0,3.1,0.32,4.43,0.98c1.35,0.66,2.03,1.39,2.03,2.19c0,0.7-0.42,1.55-1.27,2.58c-0.84,1.03-1.26,1.67-1.26,1.91v0.28
		c0.07,0.07,0.09,0.13,0.09,0.19c0.99,0.24,1.69,0.37,2.06,0.37c2.11,0,5.36-1.19,9.72-3.55c4.74-2.56,8.17-5.24,10.29-8.04
		c4.3-5.74,6.45-10.97,6.45-15.71c0-5.73-1.49-10.64-4.5-14.76c-2.41-3.3-4.56-4.96-6.44-4.96h-0.37c-1.06,0-2.67,0.28-4.82,0.85
		c-2.14,0.55-3.62,0.84-4.44,0.84c-1.12,0-2.04-0.36-2.75-1.03c-0.73-0.68-1.07-1.52-1.07-2.52c0-1.94,1.52-4,4.57-6.17
		c-0.31-0.5-0.68-0.75-1.11-0.75c-1.81,0-3.69,1.32-5.66,3.98c-1.96,2.63-3.7,3.96-5.19,3.96c-0.99,0-1.93-0.37-2.82-1.13
		c-0.87-0.74-1.3-1.61-1.3-2.6v-0.28c-2,0.98-3.78,3.02-5.33,6.08c-1.43,2.86-2.15,5.58-2.15,8.13c0,1.94,0.59,3.97,1.78,6.12
		c1.19,2.16,2.58,3.33,4.21,3.5h0.18c0.61,0,0.94-0.34,0.94-1.03c0-0.3-0.1-0.75-0.29-1.31c-0.2-0.56-0.27-0.96-0.27-1.21
		c0-1.62,0.64-3.09,1.96-4.39c1.3-1.3,2.76-1.96,4.38-1.96c1.68,0,3.22,0.72,4.58,2.19c1.38,1.45,2.07,3.19,2.07,5.18
		c0,2.63-1.01,4.73-3,6.37c-2,1.61-4.7,2.43-8.13,2.43c-3.49,0-6.57-1.61-9.2-4.87c-2.64-3.24-3.98-6.94-3.98-11.12
		c0-6.36,2.54-11.89,7.58-16.59c5.04-4.7,10.69-7.05,16.92-7.05c7.72,0,14.29,3.03,19.71,9.11c5.42,6.07,8.15,13.17,8.15,21.26v4.02
		c0,2.99-0.67,6.23-1.96,9.72c-1.55,4.06-3.69,7.59-6.39,10.61c-2.73,3.02-6.71,5.71-11.92,8.09c-5.05,2.3-9.2,3.46-12.45,3.46
		c-5.35,0-11.37-1.8-17.99-5.38c-6.65-3.59-11.4-7.65-14.25-12.2c-6.18-9.85-9.27-20.36-9.27-31.5c0-4.74,0.36-9.22,1.03-13.46
		c0.5-2.92,1.16-5.69,1.98-8.32l1-3.37v-0.75c0-0.18-0.04-0.31-0.18-0.37c-1.55,0.56-3.27,4.14-5.14,10.75
		c-1.15,4.15-1.96,8.58-2.48,13.22c0,6.08-0.01,12.55-0.01,19.36c0.47,2.82,1.17,5.77,2.2,8.88c1.94,5.83,4.08,9.89,6.45,12.2
		c0.75,0.68,2.97,2.33,6.62,4.95c2.14,1.5,3.19,2.96,3.19,4.4c0,0.94-0.59,1.74-1.78,2.43c-2.11,1.18-3.23,1.8-3.35,1.87
		c3.68,3.11,6.45,4.67,8.31,4.67c0.75,0,1.75-0.12,2.99-0.38c1.24-0.24,2.1-0.37,2.53-0.37c1.5,0,2.8,0.3,3.92,0.9
		c1.13,0.59,1.7,1.27,1.7,2c0,0.62-0.38,1.24-1.13,1.87c-0.98,0.88-1.68,1.62-2.05,2.26c0.82,0.42,1.56,1.15,2.24,2.15
		c0.38,0.57,1.13,0.83,2.26,0.83h0.73c0.56,0,1.35-0.18,2.39-0.56c1.01-0.36,1.67-0.56,1.92-0.56c2.49,0,4.15,0.81,4.95,2.44
		c0.56,1.17,1.1,2.33,1.58,3.46c2.39,1.12,4.45,1.99,6.19,2.62c2.12,0.92,4.27,1.87,6.45,2.8c3,1.12,6.01,1.67,9.07,1.67
		c1.88,0,3.44-0.31,4.74-0.97c1.25-0.66,1.96-0.99,2.09-0.99c1.05,0,1.59,0.52,1.59,1.59c0,0.87-0.87,1.92-2.58,3.17
		c-1.71,1.26-3.22,1.88-4.53,1.88h-0.66c-0.93,0-1.84,0.03-2.72,0.09C448.43,313.71,451.9,319.22,453.94,325.21 M133.75,313.02
		c-0.01-15.28-0.01-30.9,0.01-45.83c-0.84,2.02-1.63,4.01-2.66,6.14c-2.86,5.86-5.82,10.21-8.87,13.09
		c-3.06,2.86-6.62,4.55-10.67,5.04c-2.93,0.32-5.12,0.88-6.54,1.69c-2.62,1.35-4.71,3.89-6.25,7.57c-0.46,0.99-1.89,1.5-4.31,1.5
		c-0.94,0-1.88-0.34-2.8-0.98c-0.94-0.67-1.48-0.99-1.59-0.99c-0.94,0-2.65,1.1-5.14,3.28c-2.94,2.61-5.69,5.8-8.24,9.53
		c-2.18,3.19-3.26,5.34-3.26,6.46c0,0.61-0.08,1.51-0.24,2.65c-0.16,1.17-0.23,2-0.23,2.47c0,0.87-0.25,1.77-0.75,2.67
		c-0.51,0.91-0.91,1.37-1.22,1.37c-0.51,0-1.04-0.41-1.6-1.21c-0.55-2.57-0.83-3.97-0.83-4.23c0-0.74,0.28-2.27,0.83-4.56
		c0.57-2.31,0.88-4.3,0.95-5.99c-7.48,8.6-11.23,19.39-11.23,32.35c0,9.66,2.51,17.54,7.49,23.65c4.18,5.16,8.58,7.75,13.18,7.75
		c2.11,0,4.41-0.74,6.86-2.24c2.46-1.5,4.14-2.24,5.01-2.24c3.23,0,4.86,0.99,4.86,2.98c0,0.18-0.43,1.5-1.3,3.93
		c0.25,0.33,0.65,0.46,1.21,0.46h0.19c1.57,0,3.22-1.01,4.96-3.09c1.75-2.04,2.62-3.76,2.62-5.13c0-0.13,0.47-2.53,1.4-7.19
		c0.43-2.32,0.95-3.86,1.5-4.68c0.68-1.07,1.75-1.59,3.17-1.59c0.32,0,0.88,0.34,1.68,1.03c0.81,0.68,1.39,1.38,1.68,2.06
		c0.25,0.93,0.51,1.84,0.77,2.71c0.31,1.12,0.87,1.96,1.67,2.51c1.31-1.18,2.37-2.74,3.18-4.68c0.61-1.48,0.93-2.71,0.93-3.64
		c0-0.37-0.74-2.15-2.19-5.33c-1.46-3.18-2.21-5.54-2.21-7.1c0-1.45,0.42-2.37,1.22-2.81c0.63-0.31,1.88-0.47,3.74-0.47
		c2.56,0,4.49,0.76,5.8,2.24c0.44-0.25,0.65-0.69,0.65-1.31v-0.47c0-3.24-2.36-6.69-7.1-10.39c-5.86-4.55-11.24-6.81-16.17-6.81
		c-6.23,0-11.65,1.75-16.27,5.24c-4.61,3.48-6.92,7.71-6.92,12.7c0,0.37,0.06,0.89,0.15,1.53c0.09,0.67,0.14,1.12,0.14,1.37v0.28
		c0,0.62,0.63,1.4,1.88,2.32c1.24-2.31,2.57-3.45,4.01-3.45c4.23,0,6.36,1.87,6.36,5.6c0,1.43-0.66,2.58-1.97,3.42
		c-1.31,0.83-3.02,1.25-5.14,1.25c-2.49,0-4.68-1.18-6.53-3.55c-1.89-2.36-2.82-5.06-2.82-8.05c0-6.22,2.57-11.56,7.72-15.98
		c5.14-4.42,11.39-6.64,18.75-6.64c6.47,0,12.33,1.96,17.57,5.89c0.87-2.18,1.78-4.29,2.72-6.3c0.93-2.03,2.33-3.04,4.19-3.04
		c0.26,0,0.53,0.04,0.79,0.09c0.28,0.07,0.46,0.09,0.51,0.09c0.38,0,1.07-0.77,2.07-2.34C131.74,314.69,132.65,313.82,133.75,313.02
		 M211.21,179.62c-1.46,0.58-3,1.09-4.63,1.53h97.85c-1.61-0.45-3.17-0.96-4.62-1.53c-6.48-2.52-12.48-6.84-17.99-12.94
		c-3.23-3.57-5.64-7.5-7.49-11.67c-0.3,0.04-0.68,0.21-0.94,0.21c-1.58,0-3.69-0.56-6.35-1.69c-2.69-1.14-4.34-1.69-5-1.69
		c-1.69,0-3.16,0.45-4.39,1.34c-1.23,0.89-1.84,1.81-1.84,2.75c0,0.84,0.83,2.35,2.53,4.55c1.67,2.2,2.54,4.2,2.54,5.97v0.71
		c-2.34,1.07-3.51,2.49-3.51,4.29c0,0.59,0.11,1.29,0.3,2.13c0.19,0.83,0.3,1.35,0.3,1.59c0,1.09-0.85,1.61-2.55,1.61
		c-1.42,0-3.05-0.41-4.87-1.25c-1.83-0.83-2.73-1.56-2.73-2.14c0-0.11,0.51-1.48,1.54-4.1c-1.15-0.94-2.3-1.85-3.41-2.74
		c-1.11-0.91-1.66-1.83-1.66-2.78c0-0.82,0.77-2.44,2.35-4.81c1.56-2.37,2.33-3.85,2.33-4.45c0-2.02-2.21-3.04-6.63-3.04
		c-0.53,0-2.11,0.64-4.78,1.86c-0.03,0.02-0.05,0.03-0.07,0.03c-1.91,4.82-4.64,9.28-8.31,13.31
		C223.66,172.77,217.66,177.09,211.21,179.62 M143.08,168.08c-0.62,7.65-1.9,11.99-3.85,13.07h29.74c-2.25-0.54-4.46-1.17-6.61-1.91
		C154.31,176.46,147.88,172.75,143.08,168.08 M369.49,375.23c-0.22-52.15,0-185.53,0-185.53H142.7c0,0-0.26,124.49,0,185.53
		c0.26,62.82,113.63,112.57,113.63,112.57S369.72,431.7,369.49,375.23 M342.05,181.15h29.73c-1.94-1.08-3.23-5.42-3.82-13.07
		c-4.82,4.67-11.25,8.38-19.31,11.15C346.5,179.98,344.29,180.61,342.05,181.15 M445.54,368.68c4.98-6.11,7.49-13.99,7.49-23.65
		c0-12.96-3.76-23.75-11.23-32.35c0.07,1.69,0.38,3.69,0.93,5.99c0.57,2.29,0.83,3.82,0.83,4.56c0,0.26-0.26,1.66-0.83,4.23
		c-0.55,0.8-1.1,1.21-1.6,1.21c-0.31,0-0.7-0.46-1.2-1.37c-0.49-0.9-0.75-1.79-0.75-2.67c0-0.47-0.08-1.31-0.22-2.47
		c-0.16-1.14-0.24-2.05-0.24-2.65c0-1.13-1.08-3.27-3.27-6.46c-2.55-3.72-5.3-6.92-8.22-9.53c-2.5-2.18-4.21-3.28-5.15-3.28
		c-0.12,0-0.65,0.32-1.61,0.99c-0.92,0.64-1.84,0.98-2.79,0.98c-2.42,0-3.85-0.51-4.31-1.5c-1.55-3.68-3.63-6.21-6.25-7.57
		c-1.42-0.82-3.61-1.37-6.54-1.69c-4.06-0.49-7.61-2.18-10.67-5.04c-3.03-2.87-5.99-7.22-8.87-13.09c-1.1-2.24-1.94-4.34-2.8-6.45
		c0,15.13-0.01,30.89,0,46.05c1.16,0.83,2.13,1.73,2.8,2.73c1,1.57,1.68,2.34,2.06,2.34c0.05,0,0.24-0.02,0.54-0.09
		c0.27-0.05,0.52-0.09,0.77-0.09c1.87,0,3.27,1.01,4.22,3.04c0.92,2.02,1.83,4.13,2.71,6.3c5.24-3.94,11.09-5.89,17.56-5.89
		c7.36,0,13.62,2.22,18.75,6.64c5.14,4.42,7.71,9.76,7.71,15.98c0,2.99-0.92,5.68-2.81,8.05c-1.86,2.37-4.04,3.55-6.53,3.55
		c-2.11,0-3.84-0.42-5.14-1.25c-1.32-0.85-1.97-1.99-1.97-3.42c0-3.74,2.13-5.6,6.36-5.6c1.42,0,2.78,1.14,4.02,3.45
		c1.25-0.92,1.88-1.7,1.88-2.32v-0.28c0-0.25,0.03-0.7,0.14-1.37c0.08-0.65,0.13-1.16,0.13-1.53c0-4.99-2.3-9.22-6.91-12.7
		c-4.62-3.5-10.05-5.24-16.28-5.24c-4.92,0-10.3,2.26-16.17,6.81c-4.73,3.69-7.09,7.15-7.09,10.39v0.47c0,0.62,0.21,1.06,0.64,1.31
		c1.31-1.49,3.25-2.24,5.8-2.24c1.87,0,3.12,0.16,3.75,0.47c0.81,0.44,1.22,1.36,1.22,2.81c0,1.56-0.74,3.92-2.21,7.1
		c-1.46,3.18-2.19,4.96-2.19,5.33c0,0.93,0.32,2.16,0.93,3.64c0.82,1.94,1.88,3.5,3.19,4.68c0.81-0.56,1.37-1.4,1.67-2.51
		c0.26-0.88,0.5-1.78,0.74-2.71c0.31-0.68,0.88-1.38,1.69-2.06c0.81-0.7,1.36-1.03,1.68-1.03c1.43,0,2.5,0.53,3.17,1.59
		c0.57,0.82,1.09,2.36,1.52,4.68c0.93,4.67,1.4,7.06,1.4,7.19c0,1.36,0.87,3.09,2.6,5.13c1.76,2.07,3.41,3.09,4.97,3.09h0.19
		c0.57,0,0.97-0.13,1.2-0.46c-0.87-2.43-1.3-3.75-1.3-3.93c0-1.99,1.62-2.98,4.85-2.98c0.89,0,2.56,0.74,5.02,2.24
		c2.45,1.49,4.73,2.24,6.86,2.24C436.97,376.43,441.37,373.84,445.54,368.68"/>
	<path class="st2" d="M223.91,342.66c3.93,0,5.72,1.79,5.72,5.54c0,3.75-1.79,5.72-5.72,5.72c-3.75,0-5.72-1.97-5.72-5.72
		C218.19,344.45,220.15,342.66,223.91,342.66 M188.52,219.71v171.03h56.47v-8.4h-48.07V228.11l47.9,0.18l0.18-8.58H188.52z
		 M305.4,309.78c-12.69,0-23.41-4.47-32.35-13.22c-8.76-8.94-13.23-19.48-13.23-31.81c0-12.51,4.47-23.05,13.23-31.81
		c8.94-8.76,19.48-13.22,31.81-13.22c12.33,0,23.06,4.47,31.81,13.22c8.76,8.76,13.22,19.3,13.22,31.81h-8.58
		c0-10.01-3.57-18.59-10.72-25.73c-7.15-7.15-15.73-10.72-25.73-10.72c-10.01,0-18.59,3.57-25.73,10.72
		c-7.15,7.15-10.72,15.73-10.72,25.73c0,10.01,3.58,18.59,10.72,25.73c7.15,7.15,16.08,10.72,26.45,10.72
		c12.69,0,23.23,4.29,31.63,13.05c8.4,8.76,12.69,19.3,12.69,31.63c0,12.51-4.47,23.05-13.22,31.81
		c-8.76,8.76-19.3,13.23-31.81,13.23c-12.33,0-23.05-4.29-31.81-13.23c-8.94-8.76-13.4-19.48-13.4-31.99h8.58
		c0,10.19,3.58,18.76,10.72,25.91c7.15,7.15,15.73,10.72,25.91,10.72c10.01,0,18.59-3.57,25.73-10.72
		c7.15-6.97,10.72-15.55,10.72-25.73c0-9.83-3.39-18.41-10.19-25.56C324.34,313.35,315.76,309.78,305.4,309.78"/>
</g>
</svg>
