<?xml version="1.0" encoding="utf-8"?>
<!-- Generator: Adobe Illustrator 24.0.1, SVG Export Plug-In . SVG Version: 6.00 Build 0)  -->
<svg version="1.1" id="Camada_1" xmlns="http://www.w3.org/2000/svg" xmlns:xlink="http://www.w3.org/1999/xlink" x="0px" y="0px"
	 viewBox="0 0 192 192" style="enable-background:new 0 0 192 192;" xml:space="preserve">
<style type="text/css">
	.st0{fill-rule:evenodd;clip-rule:evenodd;fill:#EC1F8D;}
	.st1{fill-rule:evenodd;clip-rule:evenodd;fill:#525254;}
	.st2{fill-rule:evenodd;clip-rule:evenodd;fill:#FFFFFF;}
</style>
<g>
	<path class="st0" d="M50.85,69.09c0,0-0.1,48.89,0,72.86c0.11,24.67,45.51,44.2,45.51,44.2s45.43-22.02,45.33-44.2
		c-0.09-20.47,0-72.86,0-72.86H50.85z"/>
	<path class="st1" d="M90.4,10.81c0.3,0,1-0.24,2.13-0.7c1.12-0.47,2.02-0.71,2.71-0.71c0.78,0,1.79,0.23,3.04,0.67
		c1.25,0.44,2.01,0.67,2.3,0.67c0.3,0,0.58-0.16,0.84-0.47c0.27-0.31,0.41-0.63,0.41-0.93c0-0.76-0.56-1.51-1.68-2.24
		C99.03,6.37,97.76,6,96.34,6c-1.96,0-3.6,0.33-4.95,0.97c-1.34,0.65-2.06,1.42-2.16,2.31C89.57,10.3,89.97,10.81,90.4,10.81
		 M170.27,122.31c0.71,2.1,1.06,4.73,1.06,7.88c0,3.3-0.85,6.15-2.56,8.55c-1.36,1.92-3.01,3.41-4.98,4.47
		c-1.96,1.06-4.04,1.59-6.24,1.59c-2.85,0-5.31-0.5-7.39-1.5c-2.71-1.31-4.79-3.01-6.24-5.09c-1.17-1.66-1.75-3.18-1.75-4.59
		c0-1.43,0.23-3.14,0.68-5.14c0.46-2,0.69-3.35,0.69-4.04c0-1.7-0.57-3.06-1.65-4.11c0,8.47,0.02,16.27,0.04,21.78
		c0.09,22.47-45.74,44.79-45.74,44.79s-45.82-19.8-45.92-44.79c-0.02-6.06-0.04-13.68-0.04-21.72c-1.04,1.04-1.59,2.37-1.59,4.05
		c0,0.7,0.22,2.05,0.69,4.04c0.45,2,0.68,3.71,0.68,5.14c0,1.4-0.59,2.93-1.75,4.59c-1.45,2.08-3.53,3.77-6.24,5.09
		c-2.08,1-4.54,1.5-7.4,1.5c-2.19,0-4.28-0.53-6.24-1.59c-1.96-1.06-3.62-2.55-4.98-4.47c-1.7-2.4-2.55-5.26-2.55-8.55
		c0-3.15,0.35-5.78,1.05-7.88c0.77-2.25,2.07-4.31,3.89-6.21c-0.33-0.02-0.66-0.03-1.02-0.03h-0.24c-0.49,0-1.06-0.23-1.7-0.71
		c-0.65-0.47-0.97-0.86-0.97-1.19c0-0.4,0.2-0.6,0.6-0.6c0.05,0,0.31,0.12,0.79,0.37c0.48,0.25,1.07,0.36,1.77,0.36
		c1.14,0,2.28-0.21,3.4-0.63c0.81-0.35,1.62-0.71,2.41-1.05c0.65-0.24,1.43-0.56,2.31-0.98c0.19-0.42,0.39-0.86,0.6-1.3
		c0.3-0.61,0.92-0.91,1.86-0.91c0.09,0,0.33,0.07,0.71,0.21c0.39,0.14,0.68,0.21,0.9,0.21h0.27c0.42,0,0.71-0.1,0.85-0.31
		c0.26-0.37,0.54-0.65,0.84-0.8c-0.14-0.24-0.4-0.51-0.77-0.85c-0.28-0.23-0.42-0.47-0.42-0.7c0-0.27,0.21-0.53,0.63-0.75
		c0.42-0.23,0.91-0.34,1.47-0.34c0.16,0,0.48,0.05,0.94,0.14c0.47,0.1,0.85,0.14,1.12,0.14c0.7,0,1.74-0.58,3.12-1.75
		c-0.05-0.03-0.46-0.26-1.26-0.7c-0.44-0.26-0.66-0.56-0.66-0.91c0-0.54,0.39-1.09,1.19-1.65c1.38-0.98,2.21-1.6,2.49-1.86
		c0.89-0.86,1.7-2.39,2.42-4.57c0.35-1.07,0.61-2.08,0.79-3.06c0-2.75,0-5.36,0.01-7.78c-0.2-1.65-0.5-3.22-0.91-4.71
		c-0.7-2.48-1.34-3.82-1.93-4.03c-0.05,0.02-0.07,0.07-0.07,0.14v0.28l0.39,1.26c0.3,0.99,0.55,2.02,0.73,3.12
		c0.26,1.59,0.39,3.27,0.39,5.05c0,4.18-1.16,8.12-3.47,11.81c-1.07,1.71-2.86,3.23-5.35,4.57c-2.48,1.34-4.73,2.02-6.74,2.02
		c-1.21,0-2.77-0.43-4.66-1.3c-1.96-0.89-3.46-1.9-4.47-3.03c-1.02-1.13-1.82-2.46-2.41-3.98c-0.49-1.31-0.73-2.52-0.73-3.64v-1.51
		c0-3.04,1.02-5.7,3.05-7.97c2.03-2.28,4.5-3.42,7.39-3.42c2.33,0,4.45,0.88,6.34,2.64c1.89,1.76,2.84,3.84,2.84,6.22
		c0,1.57-0.49,2.96-1.49,4.17c-0.99,1.22-2.14,1.83-3.45,1.83c-1.29,0-2.3-0.31-3.05-0.91c-0.75-0.61-1.12-1.4-1.12-2.39
		c0-0.75,0.26-1.4,0.78-1.94c0.51-0.55,1.08-0.82,1.72-0.82c0.6,0,1.16,0.24,1.64,0.73c0.49,0.49,0.73,1.04,0.73,1.65
		c0,0.1-0.03,0.24-0.1,0.45c-0.07,0.21-0.11,0.38-0.11,0.49c0,0.26,0.12,0.39,0.36,0.39h0.07c0.61-0.07,1.14-0.5,1.58-1.31
		c0.45-0.81,0.67-1.57,0.67-2.3c0-0.96-0.27-1.98-0.81-3.05c-0.58-1.15-1.25-1.91-2-2.28v0.11c0,0.37-0.17,0.7-0.49,0.98
		c-0.33,0.28-0.68,0.42-1.05,0.42c-0.56,0-1.21-0.5-1.95-1.49c-0.73-1-1.44-1.49-2.12-1.49c-0.16,0-0.3,0.09-0.42,0.28
		c1.14,0.81,1.72,1.59,1.72,2.31c0,0.38-0.13,0.69-0.41,0.95c-0.26,0.25-0.61,0.39-1.03,0.39c-0.31,0-0.86-0.11-1.67-0.31
		c-0.8-0.21-1.41-0.32-1.8-0.32h-0.14c-0.7,0-1.51,0.62-2.42,1.86c-1.12,1.54-1.68,3.38-1.68,5.53c0,1.78,0.8,3.74,2.42,5.89
		c0.79,1.05,2.08,2.05,3.85,3.02c1.64,0.89,2.85,1.33,3.65,1.33c0.14,0,0.4-0.05,0.77-0.14c0-0.02,0.01-0.05,0.03-0.07v-0.11
		c0-0.09-0.16-0.33-0.47-0.72c-0.32-0.39-0.48-0.71-0.48-0.97c0-0.3,0.25-0.58,0.76-0.82c0.5-0.24,1.05-0.37,1.66-0.37h0.04
		c0.35,0,0.91,0.14,1.68,0.42c0.77,0.29,1.27,0.42,1.51,0.42c0.63,0,1.28-0.13,1.95-0.4c0.67-0.27,1-0.53,1-0.79
		c0-0.28-0.46-0.57-1.37-0.86c-0.91-0.29-1.37-0.69-1.37-1.21c0-0.33,0.32-0.68,0.95-1.07c0.63-0.39,1.51-0.7,2.63-0.93
		c0.44-0.07,1.01-0.24,1.71-0.49c0.52-0.33,0.99-0.77,1.4-1.32c0.42-0.54,0.63-0.93,0.63-1.13c0-0.23-0.13-0.46-0.39-0.69
		c-0.26-0.22-0.38-0.42-0.38-0.61c0-0.26,0.2-0.69,0.6-1.3c0.49-0.75,0.84-1.44,1.05-2.07c0.4-1.05,0.6-2.28,0.6-3.68
		c0-0.95-0.15-2.16-0.45-3.6c-0.35-1.59-0.75-2.77-1.19-3.54c-0.47-0.84-0.93-1.67-1.4-2.48c-0.37-0.66-0.74-1.07-1.09-1.23
		c-1-0.49-1.51-0.92-1.51-1.3c0-0.54,0.71-0.81,2.13-0.81c-0.02,0,0.09-0.01,0.32-0.03c0.24-0.03,0.48-0.04,0.74-0.04
		c0.67,0,1.25,0.23,1.72,0.7c0.28,0.3,0.92,1.24,1.93,2.8c0.81,1.24,1.46,2.57,2.04,3.95c0.01-5.55,0.02-9.03,0.02-9.03h1.42
		c-0.39-0.17-0.63-0.37-0.63-0.61c0-0.22,0.06-0.62,0.16-1.2c0.11-0.58,0.16-1.03,0.16-1.36c0-0.51-0.13-1.13-0.4-1.86
		c-0.42-1.13-0.62-1.72-0.62-1.78c-0.42-2.29,2.53-3.74,5.81-1.66c0.53,0.33,1.21,0.61,2.04,0.87c0.83,0.26,1.64,0.51,2.46,0.75
		c0.82,0.24,1.64,0.47,2.46,0.68c0.5,0.17,0.76,0.34,0.76,0.53c0,0.38-0.45,0.57-1.37,0.57h-0.36c-0.88,0-2.85-0.35-5.9-1.05
		c-0.23,0-0.39,0.07-0.44,0.2c0.3,0.62,0.91,1.21,1.87,1.78c1.71,0.99,3.68,1.8,5.9,2.43c2.09,0.56,4.04,0.84,5.85,0.84
		c3.19,0,5.7-0.25,7.54-0.77c2.63-0.73,4.8-1.95,6.51-3.68c1.57-1.56,2.37-3.12,2.42-4.68c-0.4-0.19-0.84-0.48-1.34-0.9
		c-0.93-0.78-1.39-1.4-1.39-1.84c0-0.09,0.05-0.22,0.14-0.4c0.2,0.13,0.59,0.33,1.18,0.6l0.81,0.27l0.17-0.31
		c-0.08-0.28-0.13-0.51-0.23-0.82c-0.47-1.35-0.69-2.24-0.69-2.67c0-0.48,0.32-0.87,0.95-1.15c0.63-0.29,0.95-0.56,0.95-0.83
		c0-0.57-0.54-1.08-1.64-1.53c-1.3-0.49-2.6-0.96-3.9-1.42c-1.83-0.73-2.75-1.51-2.75-2.35c0-1.16,0.76-1.99,2.26-2.47
		c-0.14-0.75-0.9-1.13-2.26-1.13c-0.86,0-1.88,0.32-3.08,0.97c-1.2,0.64-2.09,0.97-2.69,0.97c-1.24,0-1.96-0.45-2.17-1.37
		c-0.06-0.46-0.13-0.92-0.2-1.37c-0.08-0.46-0.36-0.69-0.87-0.69c-0.65,0-1.44,0.5-2.4,1.49c-1.09,1.13-2.02,2.6-2.79,4.41
		c-0.5,1.19-0.75,2.59-0.75,4.2c0,2.43,0.65,4.41,1.95,5.95c1.12,1.32,2.39,1.98,3.81,1.98c2.51,0,3.77-0.43,3.77-1.29
		c0-0.08-0.36-0.42-1.09-1.02c-0.72-0.59-1.09-1.26-1.09-2.01c0-0.65,0.25-1.26,0.73-1.82c0.49-0.57,1.03-0.85,1.62-0.85
		c1.22,0,2.23,0.35,3.04,1.05c0.81,0.69,1.22,1.57,1.22,2.62c0,1.51-0.63,2.76-1.87,3.76c-1.24,1-2.84,1.5-4.79,1.5
		c-0.98,0-2.07-0.21-3.28-0.65c-1.21-0.43-2.22-0.97-3.02-1.61c-1.04-0.84-1.87-1.97-2.51-3.4c-0.64-1.43-0.95-2.91-0.95-4.45
		c0-3.23,1.39-6.38,4.17-9.42c-0.23-0.21-0.52-0.33-0.84-0.33c-0.24,0-0.54,0.09-0.91,0.27c-0.37,0.17-0.6,0.26-0.69,0.26
		c-1.33,0-2.16-0.69-2.49-2.06c-0.29-1.18,2.89-2.38,5.37-2.38c0.68,0,1.81-0.08,3.39-0.24c1.58-0.17,2.82-0.25,3.7-0.25
		c2.28,0,4.2,0.3,5.76,0.89c8.04,3.05,12.06,8.05,12.06,15.01c0,0.68-0.09,1.31-0.16,1.96c0.32,0.16,0.61,0.34,0.9,0.58
		c0.95,0.78,1.55,1.17,1.79,1.17c0.78,0,1.17-0.65,1.17-1.94c0-4.14-2.56-9.71-7.69-16.7l-0.15-0.47c0.05-0.31,0.27-0.47,0.66-0.47
		c0.59,0,1.18,0.54,1.8,1.61c0.61,1.07,1.18,1.64,1.72,1.73c0.1-0.09,0.14-0.16,0.14-0.2c0-1.61-0.76-3.03-2.27-4.28
		c-0.59-0.49-1.88-1.37-3.88-2.67c-1.17-0.76-1.76-1.38-1.76-1.87c0-0.9,0.86-1.74,2.57-2.54c-0.3-0.98-0.87-1.63-1.72-1.94
		c-0.86-0.31-1.66-0.6-2.42-0.87c-0.76-0.27-1.13-0.78-1.13-1.54c0-0.85,0.39-1.63,1.17-2.34c0.78-0.71,1.64-1.06,2.57-1.06
		c2.34,0,5,2.98,7.99,8.95c0.58,1.16,1.05,3.02,1.39,5.58c0.34,2.56,0.83,4.4,1.47,5.51c0.29-0.76,0.43-1.43,0.43-2.01v-0.33
		c-0.05-0.22-0.07-0.4-0.07-0.53c0-0.04,0.02-0.15,0.07-0.33v-0.4c0-4.81-0.65-9.58-1.94-14.29c-1.29-4.72-1.94-7.06-1.94-7.01
		c0-0.18,0.05-0.36,0.15-0.53c0.09-0.18,0.51-0.44,1.24-0.81c0.2-1.96,1.07-2.94,2.64-2.94c1.47,0,2.73,0.67,3.81,2
		c0.05-0.04,0.16-0.12,0.33-0.23c0.17-0.11,0.31-0.21,0.4-0.3c0.73,0.27,1.11,0.8,1.11,1.6c0,0.3-0.32,1.34-0.96,3.07
		c-0.83,2.22-1.47,4.16-1.9,5.81c-0.2,0.76-0.47,3.39-0.81,7.89c-0.44,5.79-0.66,8.7-0.66,8.75c0,0.93,0.09,1.78,0.3,2.54
		c0.58-1.21,1.17-3.23,1.76-6.08c0.58-3.16,1.22-5.56,1.9-7.21c1.17-2.9,2.71-5.3,4.62-7.21c1.56-1.6,2.86-2.4,3.89-2.4
		c0.92,0,1.81,0.43,2.67,1.3c0.84,0.87,1.28,1.75,1.28,2.64c0,0.58-0.22,1.08-0.66,1.5c-0.44,0.42-0.94,0.63-1.47,0.63
		c-0.44,0-0.87-0.22-1.32-0.67c-0.38,0.18-0.59,0.53-0.59,1.07v0.33c0,0.66-1.24,1.85-3.73,3.54l0.66-0.07
		c0.73-0.4,1.39-0.6,1.98-0.6c1.86,0,2.79,0.67,2.79,2c0,0.54-1.01,1.45-3.02,2.74c-2.79,1.78-5.02,3.57-6.73,5.35l-0.52,0.87
		l0.22,0.34c0.73-0.14,1.78-0.74,3.15-1.84c1.36-1.09,2.39-1.64,3.07-1.64c0.3,0,0.44,0.11,0.44,0.33c0-0.05-1.1,1.09-3.3,3.41
		c-3.82,4.01-6.42,9.13-7.84,15.36l0.21,0.73c0.88-0.27,1.88-1.01,3-2.21c0.83-0.87,1.62-1.34,2.38-1.47
		c-0.02-0.31-0.08-0.58-0.08-0.89c0-6.96,4.03-11.96,12.07-15.01c1.57-0.59,3.49-0.89,5.77-0.89c0.89,0,2.12,0.08,3.7,0.25
		c1.58,0.16,2.72,0.24,3.4,0.24c2.48,0,5.66,1.2,5.37,2.38c-0.33,1.38-1.16,2.06-2.49,2.06c-0.08,0-0.31-0.09-0.68-0.26
		c-0.36-0.17-0.67-0.27-0.91-0.27c-0.33,0-0.61,0.11-0.84,0.33c2.78,3.05,4.17,6.19,4.17,9.42c0,1.54-0.32,3.02-0.96,4.45
		c-0.64,1.43-1.47,2.56-2.51,3.4c-0.8,0.64-1.8,1.18-3.02,1.61c-1.21,0.44-2.3,0.65-3.28,0.65c-1.95,0-3.55-0.5-4.79-1.5
		c-1.25-0.99-1.87-2.25-1.87-3.76c0-1.05,0.41-1.93,1.22-2.62c0.81-0.7,1.83-1.05,3.03-1.05c0.59,0,1.14,0.28,1.62,0.85
		c0.48,0.56,0.74,1.17,0.74,1.82c0,0.75-0.37,1.42-1.09,2.01c-0.73,0.6-1.09,0.94-1.09,1.02c0,0.86,1.25,1.29,3.77,1.29
		c1.42,0,2.69-0.66,3.82-1.98c1.3-1.54,1.95-3.52,1.95-5.95c0-1.61-0.25-3.02-0.75-4.2c-0.77-1.8-1.71-3.28-2.8-4.41
		c-0.95-0.99-1.75-1.49-2.39-1.49c-0.5,0-0.79,0.23-0.87,0.69c-0.07,0.46-0.14,0.91-0.2,1.37c-0.21,0.92-0.93,1.37-2.18,1.37
		c-0.59,0-1.48-0.32-2.68-0.97c-1.2-0.65-2.23-0.97-3.08-0.97c-1.36,0-2.12,0.38-2.27,1.13c1.51,0.48,2.27,1.31,2.27,2.47
		c0,0.83-0.92,1.61-2.76,2.35c-1.3,0.46-2.6,0.93-3.9,1.42c-1.09,0.46-1.63,0.96-1.63,1.53c0,0.27,0.32,0.54,0.95,0.83
		c0.63,0.28,0.95,0.67,0.95,1.15c0,0.41-0.22,1.25-0.64,2.49c0.03,0,0.08-0.03,0.11-0.03c0.29,0,0.44,0.09,0.44,0.27
		c0,0.04-0.1,0.25-0.3,0.6c-0.18,0.43-0.47,0.83-0.83,1.2c-0.11,0.52-0.16,0.98-0.16,1.37c0,1.62,0.81,3.23,2.45,4.85
		c1.71,1.72,3.88,2.95,6.51,3.68c1.84,0.51,4.35,0.77,7.54,0.77c1.8,0,3.76-0.28,5.86-0.84c2.22-0.63,4.19-1.44,5.9-2.43
		c0.94-0.57,1.57-1.16,1.87-1.78c-0.06-0.14-0.21-0.2-0.45-0.2c-3.04,0.7-5.01,1.05-5.9,1.05h-0.36c-0.91,0-1.37-0.19-1.37-0.57
		c0-0.18,0.25-0.36,0.76-0.53c0.82-0.21,1.65-0.44,2.47-0.68c0.81-0.24,1.63-0.49,2.45-0.75c0.83-0.25,1.51-0.54,2.04-0.87
		c3.28-2.08,6.22-0.63,5.81,1.66c0,0.05-0.21,0.64-0.62,1.78c-0.27,0.73-0.4,1.35-0.4,1.86c0,0.33,0.05,0.77,0.15,1.36
		c0.1,0.58,0.16,0.98,0.16,1.2c0,0.24-0.24,0.45-0.64,0.61h1.86c0,0,0,3.5-0.01,9.04c0.57-1.38,1.24-2.72,2.05-3.96
		c1-1.56,1.64-2.5,1.92-2.8c0.47-0.47,1.04-0.7,1.72-0.7c0.26,0,0.5,0.01,0.74,0.04c0.23,0.02,0.34,0.03,0.32,0.03
		c1.42,0,2.13,0.27,2.13,0.81c0,0.37-0.5,0.8-1.5,1.3c-0.35,0.16-0.72,0.57-1.09,1.23c-0.47,0.81-0.93,1.64-1.4,2.48
		c-0.44,0.77-0.84,1.96-1.19,3.54c-0.31,1.45-0.46,2.65-0.46,3.6c0,1.41,0.2,2.64,0.6,3.68c0.21,0.63,0.56,1.32,1.05,2.07
		c0.39,0.61,0.59,1.04,0.59,1.3c0,0.19-0.12,0.39-0.38,0.61c-0.26,0.22-0.39,0.45-0.39,0.69c0,0.21,0.21,0.59,0.63,1.13
		c0.43,0.55,0.89,0.99,1.41,1.32c0.69,0.25,1.27,0.42,1.71,0.49c1.12,0.23,1.99,0.54,2.63,0.93c0.63,0.39,0.95,0.74,0.95,1.07
		c0,0.51-0.45,0.91-1.37,1.21c-0.91,0.3-1.37,0.58-1.37,0.86c0,0.26,0.34,0.52,1,0.79c0.67,0.27,1.31,0.4,1.95,0.4
		c0.23,0,0.73-0.14,1.51-0.42c0.77-0.27,1.33-0.42,1.68-0.42h0.03c0.61,0,1.16,0.12,1.66,0.37c0.51,0.25,0.76,0.52,0.76,0.82
		c0,0.26-0.16,0.58-0.48,0.97c-0.32,0.39-0.47,0.63-0.47,0.72v0.11c0.03,0.02,0.03,0.05,0.03,0.07c0.37,0.09,0.63,0.14,0.77,0.14
		c0.79,0,2.01-0.44,3.64-1.33c1.78-0.96,3.07-1.96,3.86-3.02c1.61-2.15,2.42-4.11,2.42-5.89c0-2.15-0.56-3.99-1.69-5.53
		c-0.9-1.24-1.71-1.86-2.42-1.86h-0.14c-0.4,0-1,0.11-1.81,0.32c-0.8,0.21-1.36,0.31-1.66,0.31c-0.42,0-0.77-0.13-1.03-0.39
		c-0.27-0.26-0.4-0.57-0.4-0.95c0-0.73,0.57-1.5,1.71-2.31c-0.12-0.19-0.26-0.28-0.42-0.28c-0.68,0-1.39,0.5-2.12,1.49
		c-0.74,0.99-1.39,1.49-1.95,1.49c-0.37,0-0.72-0.14-1.06-0.42c-0.33-0.28-0.49-0.61-0.49-0.98v-0.11c-0.75,0.37-1.42,1.13-2,2.28
		c-0.53,1.07-0.81,2.09-0.81,3.05c0,0.73,0.22,1.49,0.67,2.3c0.45,0.81,0.97,1.25,1.58,1.31h0.07c0.23,0,0.35-0.13,0.35-0.39
		c0-0.11-0.04-0.28-0.11-0.49c-0.07-0.21-0.1-0.36-0.1-0.45c0-0.61,0.24-1.16,0.73-1.65c0.49-0.49,1.03-0.73,1.64-0.73
		c0.63,0,1.21,0.27,1.72,0.82c0.52,0.54,0.78,1.2,0.78,1.94c0,0.99-0.38,1.78-1.13,2.39c-0.75,0.6-1.76,0.91-3.05,0.91
		c-1.31,0-2.46-0.6-3.45-1.83c-0.99-1.21-1.49-2.6-1.49-4.17c0-2.38,0.95-4.46,2.84-6.22c1.89-1.76,4.01-2.64,6.35-2.64
		c2.89,0,5.36,1.14,7.39,3.42c2.03,2.28,3.06,4.94,3.06,7.97v1.51c0,1.12-0.25,2.34-0.74,3.64c-0.58,1.52-1.38,2.85-2.4,3.98
		c-1.03,1.13-2.51,2.14-4.47,3.03c-1.89,0.86-3.45,1.3-4.67,1.3c-2.01,0-4.26-0.67-6.74-2.02c-2.49-1.35-4.27-2.87-5.34-4.57
		c-2.32-3.69-3.48-7.63-3.48-11.81c0-1.78,0.13-3.46,0.39-5.05c0.19-1.1,0.43-2.13,0.74-3.12l0.38-1.26v-0.28
		c0-0.07-0.02-0.12-0.07-0.14c-0.58,0.21-1.23,1.55-1.93,4.03c-0.43,1.56-0.74,3.22-0.93,4.96c0,2.28,0,4.7,0,7.26
		c0.18,1.06,0.44,2.16,0.83,3.33c0.73,2.19,1.53,3.71,2.42,4.57c0.28,0.26,1.11,0.88,2.48,1.86c0.8,0.56,1.2,1.11,1.2,1.65
		c0,0.35-0.22,0.65-0.67,0.91c-0.79,0.44-1.21,0.67-1.26,0.7c1.38,1.17,2.42,1.75,3.12,1.75c0.28,0,0.66-0.05,1.12-0.14
		c0.46-0.09,0.79-0.14,0.95-0.14c0.56,0,1.05,0.11,1.47,0.34c0.42,0.22,0.64,0.48,0.64,0.75c0,0.23-0.14,0.47-0.42,0.7
		c-0.37,0.33-0.63,0.61-0.77,0.85c0.31,0.16,0.58,0.43,0.84,0.8c0.14,0.21,0.42,0.31,0.85,0.31h0.27c0.21,0,0.51-0.07,0.9-0.21
		c0.38-0.14,0.62-0.21,0.72-0.21c0.93,0,1.56,0.3,1.85,0.91c0.21,0.44,0.41,0.87,0.59,1.3c0.9,0.42,1.67,0.74,2.32,0.98
		c0.79,0.34,1.6,0.7,2.42,1.05c1.13,0.42,2.25,0.63,3.4,0.63c0.7,0,1.29-0.12,1.78-0.36c0.47-0.25,0.74-0.37,0.78-0.37
		c0.39,0,0.6,0.19,0.6,0.6c0,0.33-0.33,0.72-0.97,1.19c-0.64,0.47-1.21,0.71-1.7,0.71h-0.25c-0.35,0-0.69,0.01-1.02,0.03
		C168.2,118,169.5,120.06,170.27,122.31 M50.22,117.74c0-5.73,0-11.59,0-17.19c-0.32,0.76-0.61,1.51-1,2.3
		c-1.07,2.2-2.18,3.83-3.32,4.91c-1.15,1.07-2.48,1.71-4,1.89c-1.1,0.12-1.92,0.33-2.45,0.64c-0.98,0.51-1.77,1.46-2.35,2.84
		c-0.17,0.37-0.71,0.56-1.61,0.56c-0.35,0-0.71-0.13-1.05-0.37c-0.35-0.25-0.55-0.37-0.6-0.37c-0.35,0-0.99,0.41-1.93,1.23
		c-1.1,0.98-2.13,2.18-3.09,3.57c-0.82,1.2-1.22,2-1.22,2.42c0,0.23-0.03,0.57-0.09,1c-0.06,0.44-0.09,0.75-0.09,0.93
		c0,0.33-0.09,0.66-0.28,1c-0.19,0.34-0.34,0.51-0.46,0.51c-0.19,0-0.39-0.16-0.6-0.45c-0.2-0.96-0.31-1.49-0.31-1.59
		c0-0.28,0.11-0.85,0.31-1.71c0.21-0.86,0.33-1.61,0.36-2.25c-2.8,3.22-4.21,7.27-4.21,12.13c0,3.62,0.94,6.58,2.81,8.87
		c1.57,1.94,3.22,2.91,4.94,2.91c0.79,0,1.65-0.28,2.57-0.84c0.92-0.56,1.55-0.84,1.88-0.84c1.21,0,1.82,0.37,1.82,1.12
		c0,0.07-0.16,0.56-0.49,1.47c0.09,0.12,0.24,0.17,0.45,0.17h0.07c0.59,0,1.21-0.38,1.86-1.16c0.66-0.77,0.98-1.41,0.98-1.92
		c0-0.05,0.18-0.95,0.53-2.7c0.16-0.87,0.36-1.45,0.56-1.75c0.26-0.4,0.65-0.6,1.19-0.6c0.12,0,0.33,0.13,0.63,0.39
		c0.31,0.26,0.52,0.52,0.63,0.77c0.09,0.35,0.19,0.69,0.29,1.02c0.12,0.42,0.33,0.73,0.63,0.94c0.49-0.44,0.89-1.03,1.19-1.75
		c0.23-0.56,0.35-1.02,0.35-1.37c0-0.14-0.28-0.81-0.82-2c-0.55-1.19-0.83-2.08-0.83-2.66c0-0.54,0.16-0.89,0.46-1.05
		c0.24-0.11,0.71-0.18,1.4-0.18c0.96,0,1.68,0.28,2.17,0.84c0.16-0.09,0.24-0.26,0.24-0.49v-0.17c0-1.21-0.88-2.51-2.66-3.89
		c-2.2-1.71-4.21-2.55-6.06-2.55c-2.33,0-4.37,0.65-6.1,1.97c-1.73,1.31-2.59,2.89-2.59,4.76c0,0.14,0.02,0.33,0.06,0.57
		c0.04,0.25,0.05,0.42,0.05,0.51v0.11c0,0.23,0.24,0.52,0.71,0.87c0.46-0.87,0.96-1.29,1.5-1.29c1.59,0,2.38,0.7,2.38,2.1
		c0,0.54-0.25,0.97-0.74,1.28c-0.49,0.31-1.13,0.47-1.93,0.47c-0.93,0-1.75-0.44-2.45-1.33c-0.71-0.89-1.06-1.9-1.06-3.02
		c0-2.33,0.96-4.34,2.89-5.99c1.93-1.66,4.27-2.49,7.03-2.49c2.43,0,4.62,0.73,6.59,2.21c0.33-0.82,0.67-1.61,1.02-2.36
		c0.35-0.76,0.87-1.14,1.57-1.14c0.1,0,0.2,0.01,0.3,0.03c0.1,0.03,0.17,0.03,0.19,0.03c0.14,0,0.4-0.29,0.77-0.88
		C49.46,118.37,49.8,118.04,50.22,117.74 M79.26,67.72c-0.55,0.22-1.13,0.41-1.74,0.57h36.69c-0.6-0.17-1.19-0.36-1.73-0.57
		c-2.43-0.95-4.68-2.57-6.75-4.85c-1.21-1.34-2.11-2.81-2.81-4.37c-0.11,0.01-0.26,0.08-0.35,0.08c-0.59,0-1.39-0.21-2.38-0.63
		c-1.01-0.43-1.63-0.63-1.87-0.63c-0.63,0-1.18,0.17-1.65,0.5c-0.46,0.33-0.69,0.68-0.69,1.03c0,0.31,0.31,0.88,0.95,1.7
		c0.63,0.82,0.95,1.57,0.95,2.24v0.27c-0.88,0.4-1.32,0.93-1.32,1.61c0,0.22,0.04,0.49,0.11,0.8c0.07,0.31,0.11,0.51,0.11,0.6
		c0,0.41-0.32,0.6-0.96,0.6c-0.53,0-1.14-0.15-1.83-0.47c-0.69-0.31-1.02-0.58-1.02-0.8c0-0.04,0.19-0.56,0.58-1.54
		c-0.43-0.35-0.86-0.69-1.28-1.03c-0.41-0.34-0.62-0.68-0.62-1.04c0-0.31,0.29-0.91,0.88-1.8c0.58-0.89,0.87-1.45,0.87-1.67
		c0-0.76-0.83-1.14-2.49-1.14c-0.2,0-0.79,0.24-1.79,0.7c-0.01,0.01-0.02,0.01-0.02,0.01c-0.71,1.81-1.74,3.48-3.11,4.99
		C83.93,65.15,81.68,66.77,79.26,67.72 M53.71,63.4c-0.23,2.87-0.71,4.5-1.44,4.9h11.15c-0.84-0.2-1.67-0.44-2.48-0.72
		C57.92,66.54,55.52,65.15,53.71,63.4 M138.6,141.06c-0.08-19.55,0-69.56,0-69.56H53.57c0,0-0.1,46.67,0,69.56
		c0.1,23.55,42.6,42.21,42.6,42.21S138.69,162.24,138.6,141.06 M128.32,68.29h11.15c-0.73-0.4-1.21-2.03-1.43-4.9
		c-1.81,1.75-4.22,3.14-7.24,4.18C129.98,67.86,129.16,68.09,128.32,68.29 M167.12,138.61c1.87-2.29,2.81-5.25,2.81-8.87
		c0-4.86-1.41-8.91-4.21-12.13c0.03,0.63,0.14,1.38,0.35,2.25c0.22,0.86,0.31,1.43,0.31,1.71c0,0.1-0.1,0.62-0.31,1.59
		c-0.21,0.3-0.41,0.45-0.6,0.45c-0.12,0-0.26-0.17-0.45-0.51c-0.18-0.34-0.28-0.67-0.28-1c0-0.18-0.03-0.49-0.08-0.93
		c-0.06-0.43-0.09-0.77-0.09-1c0-0.42-0.4-1.23-1.23-2.42c-0.96-1.4-1.99-2.59-3.08-3.57c-0.94-0.82-1.58-1.23-1.93-1.23
		c-0.04,0-0.24,0.12-0.6,0.37c-0.35,0.24-0.69,0.37-1.04,0.37c-0.91,0-1.45-0.19-1.62-0.56c-0.58-1.38-1.36-2.33-2.34-2.84
		c-0.53-0.31-1.35-0.51-2.45-0.64c-1.52-0.18-2.85-0.82-4-1.89c-1.14-1.08-2.25-2.71-3.32-4.91c-0.41-0.84-0.73-1.63-1.05-2.42
		c0,5.67,0,11.58,0,17.27c0.44,0.31,0.8,0.65,1.05,1.02c0.37,0.59,0.63,0.88,0.77,0.88c0.02,0,0.09-0.01,0.2-0.03
		c0.1-0.02,0.19-0.03,0.29-0.03c0.7,0,1.23,0.38,1.58,1.14c0.35,0.76,0.69,1.55,1.01,2.36c1.96-1.48,4.16-2.21,6.58-2.21
		c2.76,0,5.11,0.83,7.03,2.49c1.93,1.66,2.89,3.66,2.89,5.99c0,1.12-0.34,2.13-1.05,3.02c-0.7,0.89-1.52,1.33-2.45,1.33
		c-0.79,0-1.44-0.16-1.93-0.47c-0.49-0.32-0.74-0.75-0.74-1.28c0-1.4,0.8-2.1,2.38-2.1c0.53,0,1.04,0.43,1.51,1.29
		c0.47-0.34,0.7-0.64,0.7-0.87v-0.11c0-0.09,0.01-0.26,0.05-0.51c0.03-0.24,0.05-0.44,0.05-0.57c0-1.87-0.86-3.46-2.59-4.76
		c-1.73-1.31-3.77-1.97-6.1-1.97c-1.85,0-3.86,0.85-6.06,2.55c-1.77,1.38-2.66,2.68-2.66,3.89v0.17c0,0.23,0.08,0.4,0.24,0.49
		c0.49-0.56,1.22-0.84,2.17-0.84c0.7,0,1.17,0.06,1.41,0.18c0.3,0.16,0.46,0.51,0.46,1.05c0,0.58-0.28,1.47-0.83,2.66
		c-0.55,1.19-0.82,1.86-0.82,2c0,0.35,0.12,0.81,0.35,1.37c0.31,0.73,0.71,1.31,1.2,1.75c0.3-0.21,0.51-0.52,0.63-0.94
		c0.1-0.33,0.19-0.67,0.28-1.02c0.11-0.26,0.33-0.52,0.63-0.77c0.3-0.26,0.51-0.39,0.63-0.39c0.54,0,0.94,0.2,1.19,0.6
		c0.22,0.31,0.41,0.88,0.57,1.75c0.35,1.75,0.52,2.65,0.52,2.7c0,0.51,0.33,1.16,0.97,1.92c0.66,0.78,1.28,1.16,1.86,1.16h0.07
		c0.21,0,0.36-0.05,0.45-0.17c-0.33-0.91-0.49-1.41-0.49-1.47c0-0.75,0.61-1.12,1.82-1.12c0.33,0,0.96,0.28,1.88,0.84
		c0.92,0.56,1.77,0.84,2.57,0.84C163.91,141.51,165.55,140.54,167.12,138.61"/>
	<path class="st2" d="M84.02,128.85c1.47,0,2.14,0.67,2.14,2.08s-0.67,2.14-2.14,2.14c-1.41,0-2.14-0.74-2.14-2.14
		S82.61,128.85,84.02,128.85 M70.75,82.75v64.12h21.17v-3.15H73.9V85.9l17.96,0.07l0.07-3.22H70.75z M114.57,116.52
		c-4.76,0-8.78-1.68-12.13-4.96c-3.28-3.35-4.96-7.3-4.96-11.93c0-4.69,1.68-8.64,4.96-11.93c3.35-3.28,7.3-4.96,11.93-4.96
		c4.62,0,8.64,1.68,11.93,4.96c3.28,3.28,4.96,7.24,4.96,11.93h-3.22c0-3.75-1.34-6.97-4.02-9.65c-2.68-2.68-5.9-4.02-9.65-4.02
		c-3.75,0-6.97,1.34-9.65,4.02c-2.68,2.68-4.02,5.9-4.02,9.65s1.34,6.97,4.02,9.65c2.68,2.68,6.03,4.02,9.92,4.02
		c4.76,0,8.71,1.61,11.86,4.89c3.15,3.28,4.76,7.24,4.76,11.86c0,4.69-1.67,8.64-4.96,11.93c-3.28,3.28-7.24,4.96-11.93,4.96
		c-4.62,0-8.64-1.61-11.93-4.96c-3.35-3.28-5.03-7.3-5.03-11.99h3.22c0,3.82,1.34,7.04,4.02,9.72c2.68,2.68,5.9,4.02,9.72,4.02
		c3.75,0,6.97-1.34,9.65-4.02c2.68-2.61,4.02-5.83,4.02-9.65c0-3.69-1.27-6.9-3.82-9.58C121.68,117.86,118.46,116.52,114.57,116.52"
		/>
</g>
</svg>
